# AST/ASF file generated using VICON BodyLanguage
# -----------------------------------------------
:version 1.10
:name VICON
:units
  mass 1.0
  length 0.45
  angle deg
:documentation
   .ast/.asf automatically generated from VICON data using
   VICON BodyBuilder and BodyLanguage model FoxedUp or BRILLIANT.MOD
:root
   order TX TY TZ RX RY RZ
   axis XYZ
   position 0 0 0  
   orientation 0 0 0 
:bonedata
  begin
     id 1 
     name lhipjoint
     direction 0.537252 -0.787203 0.302774 
     length 2.29576 
     axis 0 0 0  XYZ
  end
  begin
     id 2 
     name lfemur
     direction 0.34202 -0.939693 0  
     length 7.31114  
     axis 0 0 20  XYZ
    dof rx ry rz
    limits (-160.0 20.0)
           (-70.0 70.0)
           (-60.0 70.0)
  end
  begin
     id 3 
     name ltibia
     direction 0.34202 -0.939693 0   
     length 8.36008   
     axis 0 0 20   XYZ
    dof rx
    limits (-10.0 170.0)
  end
  begin
     id 4 
     name lfoot
     direction 0.0969116 -0.266263 0.959016   
     length 2.16704   
     axis -90 7.62852e-016 20   XYZ
    dof rx rz
    limits (-45.0 90.0)
           (-70.0 20.0)
  end
  begin
     id 5 
     name ltoes
     direction 1.53563e-011 -4.21779e-011 1   
     length 1.08338   
     axis -90 7.62852e-016 20   XYZ
    dof rx
    limits (-90.0 20.0)
  end
  begin
     id 6 
     name rhipjoint
     direction -0.588228 -0.754791 0.290308   
     length 2.39434  
     axis 0 0 0  XYZ 
  end
  begin
     id 7 
     name rfemur
     direction -0.34202 -0.939693 0   
     length 7.45207   
     axis 0 0 -20   XYZ
    dof rx ry rz
    limits (-160.0 20.0)
           (-70.0 70.0)
           (-70.0 60.0)
  end
  begin
     id 8 
     name rtibia
     direction -0.34202 -0.939693 0   
     length 8.03565   
     axis 0 0 -20   XYZ
    dof rx
    limits (-10.0 170.0)
 end
 begin
     id 9 
     name rfoot
     direction -0.107009 -0.294004 0.949795   
     length 2.11509  
     axis -90 -7.62852e-016 -20   XYZ
    dof rx rz
    limits (-45.0 90.0)
           (-20.0 70.0)
  end
  begin
     id 10 
     name rtoes
     direction -1.53533e-011 -4.22004e-011 1   
     length 1.05493   
     axis -90 -7.62852e-016 -20   XYZ
    dof rx
    limits (-90.0 20.0)
  end
  begin
     id 11 
     name lowerback
     direction -0.0115208 0.997969 -0.0626515   
     length 2.03153   
     axis 0 0 0   XYZ
    dof rx ry rz
    limits (-20.0 45.0)
           (-30.0 30.0)
           (-30.0 30.0)
  end
  begin
     id 12 
     name upperback
     direction -0.00423475 0.999974 -0.00583614   
     length 2.03619   
     axis 0 0 0   XYZ
    dof rx ry rz
    limits (-20.0 45.0)
           (-30.0 30.0)
           (-30.0 30.0)
  end
  begin
     id 13 
     name thorax
     direction 0.00289429 0.999728 0.0231573   
     length 2.03921   
     axis 0 0 0   XYZ
    dof rx ry rz
    limits (-20.0 45.0)
           (-30.0 30.0)
           (-30.0 30.0)
  end
  begin
     id 14 
     name lowerneck
     direction 0.0188995 0.987777 0.154721   
     length 1.78836   
     axis 0 0 0   XYZ
    dof rx ry rz
    limits (-20.0 45.0)
           (-30.0 30.0)
           (-30.0 30.0)
  end
  begin
     id 15 
     name upperneck
     direction -0.00612612 0.992995 -0.118   
     length 1.81789   
     axis 0 0 0   XYZ
    dof rx ry rz
    limits (-20.0 45.0)
           (-30.0 30.0)
           (-30.0 30.0)
  end
  begin
     id 16
     name head
     direction -0.00420226 0.998397 -0.0564482  
     length 1.82234  
     axis 0 0 0   XYZ
    dof rx ry rz
    limits (-20.0 45.0)
           (-30.0 30.0)
           (-30.0 30.0)
  end
  begin
     id 17 
     name lclavicle
     direction 0.916488 0.396539 0.0529676  
     length 3.51732  
     axis 0 0 0   XYZ
    dof ry rz
    limits (-20.0 10.0)
           (0.0 20.0)
  end
  begin
     id 18 
     name lhumerus
     direction 1 -4.4896e-011 8.36962e-028   
     length 5.45077   
     axis 180 -30 -90   XYZ
    dof rx ry rz
    limits (-60.0 90.0)
           (-90.0 90.0)
           (-90.0 90.0)
  end
  begin
     id 19
     name lradius
     direction 1 -4.48962e-011 3.01407e-027   
     length 3.05488   
     axis 180 -30 -90   XYZ
    dof rx
    limits (-10.0 170.0)
  end
  begin
     id 20
     name lwrist
     direction 1 -4.49002e-011 4.72961e-027   
     length 1.52744   
     axis -2.72261e-015 90 90   XYZ
    dof ry
    limits (-180.0 0.0)
 end
  begin
     id 21 
     name lhand
     direction 1 -4.4899e-011 9.45681e-027   
     length 0.638818   
     axis -6.0311e-015 90 90   XYZ
    dof rx rz
    limits (-90.0 90.0)
           (-45.0 45.0)
  end
  begin
     id 22 
     name lfingers
     direction 1 -4.48871e-011 1.88632e-026   
     length 0.515032   
     axis -1.20625e-014 90 90   XYZ
    dof rx
    limits (0.0 90.0)
  end
  begin
     id 23
     name lthumb
     direction 0.707107 -6.34964e-011 0.707107   
     length 0.739485   
     axis -90 45 6.32835e-014   XYZ
    dof rx rz
    limits (-45.0 45.0)
           (-45.0 45.0)
  end
  begin
     id 24 
     name rclavicle
     direction -0.949427 0.303202 0.0815894   
     length 3.76167  
     axis 0 0 0   XYZ 
    dof ry rz
    limits (-10.0 20.0)
           (-20.0 0.0)
  end
  begin
     id 25 
     name rhumerus
     direction -1 -4.48971e-011 -6.43969e-018  
     length 4.88702   
     axis 180 30 90   XYZ
    dof rx ry rz
    limits (-90.0 60.0)
           (-90.0 90.0)
           (-90.0 90.0)
  end
  begin
     id 26 
     name rradius
     direction -1 -4.48987e-011 5.46662e-027   
     length 3.22603   
     axis 180 30 90   XYZ
    dof rx
    limits (-10.0 170.0)
  end
  begin
     id 27 
     name rwrist
     direction -1 -4.48956e-011 4.72476e-027   
     length 1.61302   
     axis -2.72261e-015 -90 -90   XYZ
    dof ry
    limits (-180.0 0.0)
  end
  begin
     id 28
     name rhand
     direction -1 -4.4889e-011 9.43571e-027   
     length 0.716293   
     axis -6.0311e-015 -90 -90   XYZ
    dof rx rz
    limits (-90.0 90.0)
           (-45.0 45.0)
  end
  begin
     id 29
     name rfingers
     direction -1 -4.48887e-011 1.88701e-026   
     length 0.577494   
     axis -1.20625e-014 -90 -90   XYZ
    dof rx
    limits (0.0 90.0)
  end
  begin
     id 30
     name rthumb
     direction -0.707107 -6.34825e-011 0.707107   
     length 0.829169   
     axis -90 -45 -6.32835e-014   XYZ
    dof rx rz
    limits (-45.0 45.0)
           (-45.0 45.0)
  end
:hierarchy
  begin
    root lhipjoint rhipjoint lowerback
    lhipjoint lfemur
    lfemur ltibia
    ltibia lfoot
    lfoot ltoes
    rhipjoint rfemur
    rfemur rtibia
    rtibia rfoot
    rfoot rtoes
    lowerback upperback
    upperback thorax
    thorax lowerneck lclavicle rclavicle
    lowerneck upperneck
    upperneck head
    lclavicle lhumerus
    lhumerus lradius
    lradius lwrist
    lwrist lhand lthumb
    lhand lfingers
    rclavicle rhumerus
    rhumerus rradius
    rradius rwrist
    rwrist rhand rthumb
    rhand rfingers
  end

#!OML:ASF F:\VICON\USERDATA\INSTALL\rory3\rory3.ASF
:FULLY-SPECIFIED
:DEGREES
103
root -0.0957373 18.4983 0.548868 130.765 87.412 105.973
lowerback 9.73505 -0.73127 -1.39774
upperback 3.2158 -1.01445 -0.810491
thorax -2.10688 -0.458332 0.0616289
lowerneck -15.2769 0.117809 2.68539
upperneck 30.7518 0.720011 -1.65579
head 12.7899 0.655813 -0.938648
rclavicle 3.1408e-014 6.24184e-014
rhumerus 4.77306 -4.26611 -78.0984
rradius 63.9455
rwrist -190.178
rhand -24.5811 -8.44696
rfingers 7.12502
rthumb 1.91616 -38.4181
lclavicle 3.1408e-014 6.24184e-014
lhumerus 1.12426 6.92171 69.4512
lradius 61.937
lwrist 208.325
lhand -28.602 -33.001
lfingers 7.12502
lthumb -1.96736 -3.03034
rfemur -32.1811 -5.32197 15.3111
rtibia 11.9743
rfoot -4.55837 2.41375
rtoes -3.78996
lfemur -36.0754 10.7654 -23.7312
ltibia 18.5886
lfoot -7.04931 0.553315
ltoes -24.0968
104
root -0.138141 18.4898 0.554757 129.077 87.5216 103.632
lowerback 10.0761 -0.691094 -1.43016
upperback 3.28713 -0.964682 -0.808992
thorax -2.22028 -0.430879 0.0793227
lowerneck -15.2411 0.0873697 2.58764
upperneck 30.3393 0.637993 -1.55444
head 12.6098 0.609761 -0.894605
rclavicle 1.1778e-014 -5.36719e-015
rhumerus 5.62374 -4.39896 -78.2103
rradius 63.8154
rwrist -190.321
rhand -24.5957 -8.53029
rfingers 7.12502
rthumb 1.90203 -38.5016
lclavicle 1.1778e-014 -5.36719e-015
lhumerus 2.04399 7.2343 69.4092
lradius 61.9254
lwrist 208.302
lhand -28.9384 -33.091
lfingers 7.12502
lthumb -2.29218 -3.12355
rfemur -33.2023 -5.36942 15.4997
rtibia 12.116
rfoot -4.32876 2.49779
rtoes -4.06268
lfemur -37.0611 10.942 -23.8982
ltibia 18.6951
lfoot -6.83055 0.460492
ltoes -24.0035
105
root -0.17986 18.4838 0.561893 128.659 87.517 102.707
lowerback 10.5849 -0.687648 -1.49454
upperback 3.41601 -0.965912 -0.837847
thorax -2.36503 -0.426715 0.0908571
lowerneck -15.2797 0.0632589 2.52597
upperneck 29.9439 0.554926 -1.46084
head 12.4544 0.565862 -0.860389
rclavicle 2.33572e-014 3.17062e-014
rhumerus 6.53872 -4.53054 -78.3245
rradius 63.6417
rwrist -190.543
rhand -24.5321 -8.50464
rfingers 7.12502
rthumb 1.96344 -38.4754
lclavicle 2.33572e-014 3.17062e-014
lhumerus 2.96785 7.29749 69.2471
lradius 61.9885
lwrist 208.481
lhand -29.1375 -33.327
lfingers 7.12502
lthumb -2.48454 -3.36177
rfemur -34.0367 -5.33343 15.5307
rtibia 12.2959
rfoot -4.17376 2.41545
rtoes -4.15898
lfemur -37.8691 11.013 -24.0795
ltibia 18.7727
lfoot -6.63645 0.366054
ltoes -23.85
106
root -0.218106 18.4786 0.56694 129.087 87.4972 102.663
lowerback 11.0996 -0.709334 -1.55201
upperback 3.56887 -0.997633 -0.835209
thorax -2.48652 -0.437402 0.134892
lowerneck -15.3662 0.042094 2.42559
upperneck 29.605 0.500816 -1.40091
head 12.3339 0.52698 -0.82833
rclavicle -1.66979e-014 -4.09496e-014
rhumerus 7.44693 -4.54879 -78.3803
rradius 63.5151
rwrist -190.645
rhand -24.5818 -8.26036
rfingers 7.12502
rthumb 1.91544 -38.2315
lclavicle -1.66979e-014 -4.09496e-014
lhumerus 3.86788 7.26964 69.1033
lradius 61.9984
lwrist 208.782
lhand -29.1733 -33.9665
lfingers 7.12502
lthumb -2.51906 -4.00168
rfemur -34.8485 -5.34395 15.5664
rtibia 12.5605
rfoot -4.06588 2.35166
rtoes -4.18385
lfemur -38.5883 11.072 -24.2637
ltibia 18.7941
lfoot -6.45317 0.229504
ltoes -23.8342
107
root -0.261608 18.4723 0.574781 126.96 87.4133 100.058
lowerback 11.698 -0.681955 -1.77384
upperback 3.70342 -0.986084 -0.860623
thorax -2.66978 -0.425721 0.237884
lowerneck -15.3445 0.00462814 2.30759
upperneck 29.1577 0.420087 -1.31438
head 12.1479 0.477123 -0.786772
rclavicle 3.47873e-015 6.36111e-015
rhumerus 8.36318 -4.70554 -78.4652
rradius 63.3942
rwrist -190.569
rhand -24.9383 -7.59777
rfingers 7.12502
rthumb 1.57115 -37.5717
lclavicle 3.47873e-015 6.36111e-015
lhumerus 4.74905 7.21229 68.9785
lradius 61.9941
lwrist 209.2
lhand -28.9808 -34.8942
lfingers 7.12502
lthumb -2.33317 -4.92721
rfemur -35.723 -5.22206 15.4341
rtibia 12.8827
rfoot -4.02041 2.18471
rtoes -3.89493
lfemur -39.2973 11.1515 -24.5614
ltibia 18.7468
lfoot -6.15647 0.113267
ltoes -23.9897
108
root -0.308745 18.4626 0.58795 126.865 87.3534 99.4613
lowerback 12.3443 -0.661435 -1.94758
upperback 3.8156 -0.982226 -0.880796
thorax -2.90214 -0.417141 0.320862
lowerneck -15.3778 -0.0278014 2.2095
upperneck 28.805 0.332589 -1.1829
head 12.0127 0.434165 -0.733205
rclavicle 4.96962e-016 3.47873e-015
rhumerus 9.24924 -4.90978 -78.5935
rradius 63.263
rwrist -190.626
rhand -25.1588 -7.15373
rfingers 7.12502
rthumb 1.35817 -37.1292
lclavicle 4.96962e-016 3.47873e-015
lhumerus 5.63156 7.22378 68.8433
lradius 61.9101
lwrist 209.709
lhand -28.8606 -35.3349
lfingers 7.12502
lthumb -2.2171 -5.36668
rfemur -36.5966 -4.9736 15.3127
rtibia 13.1619
rfoot -4.05507 1.7911
rtoes -3.42071
lfemur -40.074 11.2145 -24.7927
ltibia 18.7054
lfoot -5.80146 -0.0526328
ltoes -24.064
109
root -0.343197 18.4546 0.595573 129.669 87.2991 101.75
lowerback 12.814 -0.693925 -1.90379
upperback 3.97214 -1.01732 -0.91548
thorax -2.9948 -0.428895 0.269589
lowerneck -15.5398 -0.0467783 2.15097
upperneck 28.5738 0.25283 -1.04239
head 11.9532 0.401572 -0.682646
rclavicle -1.98785e-015 4.27387e-015
rhumerus 10.0836 -5.02367 -78.6917
rradius 63.0588
rwrist -191.271
rhand -24.8709 -7.10253
rfingers 7.12502
rthumb 1.63625 -37.076
lclavicle -1.98785e-015 4.27387e-015
lhumerus 6.58619 7.13909 68.6687
lradius 61.7797
lwrist 210.208
lhand -28.7751 -35.2477
lfingers 7.12502
lthumb -2.13448 -5.27861
rfemur -37.3933 -4.94079 15.3166
rtibia 13.4028
rfoot -4.06535 1.53266
rtoes -2.92303
lfemur -40.8527 11.2881 -25.0195
ltibia 18.7107
lfoot -5.55136 -0.329446
ltoes -23.8837
110
root -0.375387 18.45 0.598895 133.24 87.2464 104.829
lowerback 13.2881 -0.758859 -1.79184
upperback 4.11254 -1.08622 -0.938809
thorax -3.10668 -0.457241 0.197401
lowerneck -15.6426 -0.0441066 2.17665
upperneck 28.3514 0.222543 -1.02723
head 11.8863 0.385062 -0.686184
rclavicle 3.97569e-015 1.10325e-014
rhumerus 10.8378 -5.05295 -78.7809
rradius 62.9171
rwrist -191.902
rhand -23.8157 -6.35699
rfingers 7.12502
rthumb 2.6553 -36.3202
lclavicle 3.97569e-015 1.10325e-014
lhumerus 7.50996 7.14467 68.5469
lradius 61.5761
lwrist 210.585
lhand -28.6476 -34.3512
lfingers 7.12502
lthumb -2.01138 -4.3809
rfemur -38.1509 -5.12674 15.452
rtibia 13.6221
rfoot -4.02416 1.48941
rtoes -3.3658
lfemur -41.5861 11.2308 -25.1735
ltibia 18.7511
lfoot -5.32834 -0.45857
ltoes -23.9135
111
root -0.411554 18.4423 0.603048 135.962 87.2057 106.94
lowerback 13.7082 -0.825042 -1.755
upperback 4.17467 -1.16965 -0.952763
thorax -3.26884 -0.49372 0.180214
lowerneck -15.601 -0.0188514 2.2552
upperneck 28.0618 0.228143 -1.06218
head 11.7648 0.383799 -0.711781
rclavicle -2.42517e-014 -4.79071e-014
rhumerus 11.5821 -5.09295 -78.9516
rradius 62.7684
rwrist -192.134
rhand -23.1667 -5.82266
rfingers 7.12502
rthumb 3.28212 -35.7771
lclavicle -2.42517e-014 -4.79071e-014
lhumerus 8.31598 7.28318 68.4567
lradius 61.4481
lwrist 210.835
lhand -28.8037 -33.1838
lfingers 7.12502
lthumb -2.16215 -3.21505
rfemur -39.0384 -5.33551 15.6101
rtibia 13.7748
rfoot -3.91374 1.52562
rtoes -3.2426
lfemur -42.4861 11.2075 -25.3753
ltibia 18.821
lfoot -5.10846 -0.613902
ltoes -24.0711
112
root -0.444404 18.4335 0.607529 138.761 87.1851 109.128
lowerback 14.1094 -0.872703 -1.66424
upperback 4.25435 -1.21932 -0.960966
thorax -3.40363 -0.513676 0.133384
lowerneck -15.6625 -0.00807137 2.30446
upperneck 27.8453 0.223437 -1.10495
head 11.693 0.374589 -0.736914
rclavicle 2.18663e-015 2.15681e-014
rhumerus 12.3711 -5.2446 -79.1149
rradius 62.5175
rwrist -192.367
rhand -24.2734 -6.98891
rfingers 7.12502
rthumb 2.21335 -36.9572
lclavicle 2.18663e-015 2.15681e-014
lhumerus 9.19835 7.3628 68.3503
lradius 61.2213
lwrist 211.219
lhand -29.4123 -32.8318
lfingers 7.12502
lthumb -2.74989 -2.86973
rfemur -39.913 -5.52583 15.7934
rtibia 13.9051
rfoot -3.80763 1.58791
rtoes -3.54783
lfemur -43.3914 11.2705 -25.6094
ltibia 18.8887
lfoot -4.96881 -0.836637
ltoes -24.6621
113
root -0.473309 18.4243 0.610479 141.297 87.1766 111.092
lowerback 14.5018 -0.907009 -1.55897
upperback 4.3716 -1.2449 -0.946589
thorax -3.49395 -0.521634 0.0978005
lowerneck -15.7015 -0.0131472 2.28303
upperneck 27.5634 0.210859 -1.13825
head 11.5914 0.354563 -0.747253
rclavicle 2.84262e-014 2.74323e-014
rhumerus 13.189 -5.34446 -79.1907
rradius 62.3103
rwrist -192.515
rhand -25.4218 -8.43466
rfingers 7.12502
rthumb 1.10417 -38.4115
lclavicle 2.84262e-014 2.74323e-014
lhumerus 10.1375 7.3912 68.2516
lradius 60.8784
lwrist 211.618
lhand -29.6763 -33.2097
lfingers 7.12502
lthumb -3.00487 -3.2511
rfemur -40.7351 -5.6591 15.9435
rtibia 14.054
rfoot -3.6947 1.61502
rtoes -3.708
lfemur -44.2419 11.4189 -25.8752
ltibia 18.9243
lfoot -4.82581 -1.12616
ltoes -24.3861
114
root -0.503283 18.4164 0.612785 141.494 87.0597 110.746
lowerback 14.9724 -0.905785 -1.5838
upperback 4.48928 -1.24332 -0.9654
thorax -3.62317 -0.514879 0.0973327
lowerneck -15.7132 -0.0385122 2.28021
upperneck 27.1596 0.184379 -1.26022
head 11.4377 0.317198 -0.794866
rclavicle 4.96962e-016 -5.66536e-015
rhumerus 13.974 -5.52428 -79.2286
rradius 62.1045
rwrist -192.732
rhand -25.2668 -8.37286
rfingers 7.12502
rthumb 1.25389 -38.3489
lclavicle 4.96962e-016 -5.66536e-015
lhumerus 11.1029 7.40694 68.291
lradius 60.4979
lwrist 211.958
lhand -29.4836 -34.0154
lfingers 7.12502
lthumb -2.81874 -4.0543
rfemur -41.5425 -5.77883 15.8879
rtibia 14.2097
rfoot -3.61428 1.58743
rtoes -3.52847
lfemur -45.014 11.4541 -26.2455
ltibia 18.9185
lfoot -4.57166 -1.33289
ltoes -23.9278
115
root -0.533783 18.4091 0.617383 142.313 86.9987 111.032
lowerback 15.5877 -0.886138 -1.55589
upperback 4.58384 -1.21139 -0.942966
thorax -3.85422 -0.49245 0.106855
lowerneck -15.8736 -0.100624 2.18089
upperneck 26.8741 0.136307 -1.39286
head 11.3593 0.260457 -0.833255
rclavicle 2.89232e-014 3.32964e-014
rhumerus 14.7586 -5.77658 -79.2586
rradius 61.863
rwrist -193.102
rhand -24.4758 -7.45604
rfingers 7.12502
rthumb 2.0178 -37.4262
lclavicle 2.89232e-014 3.32964e-014
lhumerus 12.1036 7.45127 68.4053
lradius 60.1127
lwrist 212.226
lhand -29.7557 -33.5415
lfingers 7.12502
lthumb -3.0815 -3.58403
rfemur -42.3181 -5.80999 15.8813
rtibia 14.3188
rfoot -3.50473 1.54225
rtoes -3.72808
lfemur -45.76 11.4815 -26.5183
ltibia 18.9333
lfoot -4.3673 -1.48685
ltoes -23.6092
116
root -0.564109 18.3981 0.623915 145.531 87.0479 113.758
lowerback 16.3038 -0.894704 -1.41383
upperback 4.61594 -1.20121 -0.877299
thorax -4.20558 -0.481156 0.102847
lowerneck -15.8537 -0.165845 2.15197
upperneck 26.6296 0.0538944 -1.44842
head 11.2603 0.208237 -0.859506
rclavicle 2.08724e-015 9.64106e-015
rhumerus 15.4496 -5.96899 -79.3191
rradius 61.6718
rwrist -193.426
rhand -24.4829 -6.85367
rfingers 7.12502
rthumb 2.01101 -36.8239
lclavicle 2.08724e-015 9.64106e-015
lhumerus 12.996 7.47186 68.3446
lradius 59.6905
lwrist 212.689
lhand -30.3079 -32.4409
lfingers 7.12502
lthumb -3.61477 -2.49179
rfemur -43.0077 -5.72318 16.0005
rtibia 14.3903
rfoot -3.3928 1.37351
rtoes -3.38453
lfemur -46.5338 11.6556 -26.6729
ltibia 18.991
lfoot -4.20262 -1.79715
ltoes -23.4874
117
root -0.593474 18.3873 0.62844 149.239 87.1693 116.977
lowerback 16.859 -0.93402 -1.23448
upperback 4.73374 -1.21585 -0.834138
thorax -4.38007 -0.482598 0.0560235
lowerneck -15.8617 -0.149906 2.21738
upperneck 26.33 0.0322325 -1.43055
head 11.1482 0.199728 -0.866353
rclavicle -1.81888e-014 -2.89232e-014
rhumerus 16.3456 -6.114 -79.5084
rradius 61.3612
rwrist -193.665
rhand -25.1006 -7.10703
rfingers 7.12502
rthumb 1.41436 -37.0821
lclavicle -1.81888e-014 -2.89232e-014
lhumerus 13.8943 7.54578 68.1616
lradius 59.2628
lwrist 213.264
lhand -30.6015 -32.2676
lfingers 7.12502
lthumb -3.89833 -2.32353
rfemur -43.7158 -5.60424 16.1955
rtibia 14.4946
rfoot -3.32287 1.22382
rtoes -3.05622
lfemur -47.3075 11.7377 -26.6642
ltibia 19.0961
lfoot -4.04203 -1.93871
ltoes -23.5591
